<svg width="28" height="28" viewBox="0 0 28 28" fill="none" xmlns="http://www.w3.org/2000/svg">
<path fill-rule="evenodd" clip-rule="evenodd" d="M20.1223 0H7.8777C2.1101 0 0 2.1101 0 7.8777V20.1223C0 25.89 2.1101 28 7.8777 28H20.1188C25.8865 28 28 25.89 28 20.1223V7.8777C28.0017 2.1101 25.8917 0 20.1223 0Z" fill="white" fill-opacity="0.4"/>
<path d="M14.0009 9.34236C11.4303 9.34236 9.34091 7.25126 9.34091 4.68066H10C10 6.88726 11.796 8.68326 14.0026 8.68326C16.2094 8.68326 18.0054 6.88726 18.0054 4.68066H18.6645C18.661 7.25126 16.5699 9.34236 14.0009 9.34236ZM5.54511 14.0024H6.28701V17.6635H5.54511V16.1763H3.86811V17.6635H3.12451V14.0024H3.86811V15.4793H5.54511V14.0024ZM9.72891 16.0986C9.72891 16.6939 9.43401 17.0113 8.89731 17.0113C8.35741 17.0113 8.06061 16.6835 8.06061 16.0727V14.0041H7.31701V16.0969C7.31701 17.1269 7.88981 17.717 8.88711 17.717C9.89461 17.717 10.4725 17.1149 10.4725 16.0658V14.0024H9.73071V16.0986H9.72891ZM18.3141 16.5196L17.4825 14.0024H16.8769L16.0453 16.5196L15.2362 14.0041H14.446L15.7227 17.6635H16.3369L17.1702 15.2602L18.0018 17.6635H18.6212L19.8945 14.0041H19.125L18.3141 16.5196ZM21.2264 16.0883H22.5773V15.4223H21.2264V14.6735H23.1881V14.0059H20.4949V17.6618H23.2589V16.994H21.2264V16.0883ZM24.144 17.6583H24.8772V14.0024H24.144V17.6583ZM11.9391 16.8991L11.6061 17.6618H10.8469L12.4601 14.0024H13.1157L14.722 17.6618H13.9439L13.6144 16.8991H11.9391ZM12.2169 16.2383H13.3401L12.7776 14.9289L12.2169 16.2383Z" fill="black"/>
</svg>
