<svg width="87" height="29" viewBox="0 0 87 29" fill="none" xmlns="http://www.w3.org/2000/svg">
<path fill-rule="evenodd" clip-rule="evenodd" d="M30.5685 1.0254C30.353 0.91101 30.1881 0.76249 30.0738 0.58289C29.9612 0.40329 29.8893 0.20896 29.8583 0H30.5962C30.6763 0.43755 30.9326 0.65633 31.3669 0.65633C31.8012 0.65633 32.0591 0.43755 32.1424 0H32.8852C32.8559 0.20732 32.784 0.40165 32.6697 0.58289C32.5555 0.76413 32.3905 0.91101 32.1734 1.0254C31.9562 1.1396 31.6868 1.1968 31.3685 1.1968C31.0501 1.1968 30.784 1.1396 30.5685 1.0254ZM23.073 7.187C22.6387 6.9389 22.3057 6.5895 22.0771 6.1388C21.8485 5.6882 21.7326 5.1657 21.7326 4.5699C21.7326 3.9445 21.8551 3.396 22.0999 2.9273C22.3449 2.4588 22.6976 2.0963 23.1579 1.8416C23.6184 1.5853 24.162 1.458 24.7873 1.458C25.3865 1.458 25.9009 1.5821 26.3335 1.8286C26.7661 2.0768 27.0943 2.4245 27.3212 2.8718C27.5482 3.3208 27.6609 3.84 27.6609 4.4294C27.6609 5.0662 27.5367 5.6197 27.2902 6.0898C27.0421 6.56 26.6911 6.9225 26.2322 7.1755C25.7751 7.4303 25.2363 7.5576 24.6192 7.5576C24.0232 7.5609 23.5073 7.4352 23.073 7.187ZM25.7311 6.4589C26.0184 6.2662 26.2322 6.0017 26.3743 5.6637C26.5164 5.3258 26.5882 4.9404 26.5882 4.5061C26.5882 4.08 26.5245 3.6997 26.3988 3.3665C26.273 3.0335 26.0723 2.7674 25.7963 2.5698C25.5204 2.3723 25.1645 2.2727 24.7302 2.2727C24.3155 2.2727 23.9629 2.3739 23.6723 2.5747C23.3816 2.7756 23.1645 3.045 23.0208 3.3829C22.8755 3.7208 22.8036 4.0931 22.8036 4.4996C22.8036 4.9291 22.8722 5.3127 23.0094 5.6523C23.1465 5.9919 23.3555 6.2596 23.6363 6.4556C23.9171 6.6515 24.2665 6.7511 24.6813 6.7511C25.0926 6.7478 25.4437 6.6515 25.7311 6.4589ZM15.2394 7.4777H16.3954L14.188 4.2416L15.2737 2.6841C15.3651 2.5502 15.4549 2.4539 15.5415 2.3935C15.628 2.3331 15.7309 2.3037 15.8517 2.3037C15.9529 2.3037 16.059 2.3282 16.1717 2.3739L16.3856 1.5739C16.2043 1.4972 16.0003 1.4596 15.7701 1.4596C15.4941 1.4596 15.2655 1.5183 15.0827 1.6376C14.8999 1.7568 14.7186 1.9494 14.539 2.2139L13.3096 3.9935H12.7724V1.5413H11.7472V7.4777H12.7724V4.8621H13.4729L15.2394 7.4777ZM18.776 1.5413H17.1776V7.4776H18.203V5.1902C18.4952 5.2441 18.7549 5.2719 18.9817 5.2719C19.3981 5.2719 19.7655 5.1935 20.0854 5.0368C20.4055 4.88 20.6536 4.6547 20.8332 4.3608C21.0112 4.0669 21.101 3.7225 21.101 3.329C21.101 2.7494 20.9002 2.3069 20.5018 2C20.1034 1.6947 19.5271 1.5413 18.776 1.5413ZM20.0772 3.3534C20.0772 3.7143 19.9679 3.9951 19.7491 4.1927C19.5304 4.3903 19.212 4.4898 18.794 4.4898C18.6569 4.4898 18.4593 4.4686 18.203 4.4278V2.32H18.7613C19.1924 2.32 19.5205 2.4 19.7426 2.5616C19.9663 2.7233 20.0772 2.9878 20.0772 3.3534ZM32.8803 4.2139V7.4777H33.8322V1.5413H32.655L29.7195 6.1421C29.744 5.7045 29.757 5.3013 29.757 4.9323V1.5413H28.8052V7.4777H29.9448L32.926 2.8033C32.8951 3.3339 32.8803 3.8041 32.8803 4.2139ZM1.3404 7.1871C0.906101 6.939 0.573101 6.5896 0.344501 6.139C0.115901 5.6883 0 5.1659 0 4.57C0 3.9447 0.122398 3.3961 0.367298 2.9275C0.612198 2.4589 0.964901 2.0965 1.4253 1.8418C1.8857 1.5855 2.4294 1.4581 3.0547 1.4581C3.6538 1.4581 4.1682 1.5822 4.6008 1.8287C5.0335 2.0769 5.3617 2.4247 5.5886 2.8719C5.8155 3.3193 5.9282 3.8401 5.9282 4.4296C5.9282 5.0663 5.8041 5.6198 5.5576 6.09C5.3094 6.5602 4.9584 6.9226 4.4996 7.1757C4.0409 7.4288 3.5037 7.5578 2.8865 7.5578C2.289 7.5611 1.7747 7.4354 1.3404 7.1871ZM3.9968 6.459C4.2841 6.2663 4.498 6.0018 4.64 5.6639C4.7821 5.3259 4.8539 4.9406 4.8539 4.5063C4.8539 4.0802 4.7903 3.6998 4.6645 3.3667C4.5388 3.0336 4.338 2.7675 4.062 2.5699C3.7861 2.3724 3.4303 2.2728 2.9959 2.2728C2.5812 2.2728 2.2286 2.374 1.938 2.5748C1.649 2.7757 1.4302 3.0451 1.2865 3.383C1.1412 3.721 1.0693 4.0933 1.0693 4.4997C1.0693 4.9292 1.138 5.3128 1.2751 5.6524C1.4122 5.992 1.6212 6.2598 1.902 6.4557C2.1829 6.6516 2.5322 6.7512 2.947 6.7512C3.36 6.7479 3.7094 6.6516 3.9968 6.459ZM6.166 2.399H8.0044V7.4786H9.0295V2.399H10.7812L10.875 1.5424H6.255L6.166 2.399ZM36.5401 2.399H34.6993L34.7884 1.5424H39.4108L39.3145 2.399H37.5652V7.4786H36.5401V2.399ZM40.2817 1.5424H43.778L43.6794 2.3845H41.3068V4.0208H43.5446V4.8125H41.3068V6.6244H43.8069L43.7203 7.4786H40.2817V1.5424ZM50.955 4.5453C51.166 4.6759 51.333 4.8457 51.454 5.0579C51.574 5.2703 51.637 5.5184 51.637 5.8024C51.637 6.1339 51.553 6.4245 51.389 6.6776C51.224 6.9307 50.982 7.1266 50.664 7.2686C50.345 7.409 49.963 7.4792 49.517 7.4792H47.5828V1.5413H49.436C50.064 1.5413 50.536 1.6621 50.85 1.9053C51.165 2.1486 51.321 2.4816 51.321 2.9061C51.321 3.2587 51.22 3.5527 51.02 3.7894C50.819 4.0261 50.556 4.1927 50.231 4.2874C50.502 4.3298 50.744 4.4147 50.955 4.5453ZM48.584 3.969H49.224C49.438 3.969 49.625 3.9265 49.787 3.8416C49.95 3.7567 50.074 3.6425 50.162 3.4988C50.251 3.3551 50.293 3.1968 50.293 3.0253C50.293 2.782 50.205 2.6008 50.029 2.48C49.852 2.3592 49.597 2.3004 49.264 2.3004H48.584V3.969ZM50.303 6.4637C50.512 6.2923 50.617 6.0523 50.617 5.7405C50.617 5.409 50.5 5.1576 50.27 4.9861C50.04 4.8147 49.707 4.7282 49.273 4.7282H48.584V6.7201H49.354C49.777 6.7201 50.094 6.6336 50.303 6.4637ZM52.528 22.7577V12.1665L54.57 12V22.3919C54.57 22.7739 54.636 23.0433 54.766 23.2017C54.896 23.3601 55.102 23.4384 55.384 23.4384C55.512 23.4384 55.691 23.4075 55.925 23.347L56.167 24.8181C55.973 24.8964 55.736 24.9584 55.457 25.0041C55.178 25.0515 54.913 25.0744 54.664 25.0744C53.239 25.076 52.528 24.3037 52.528 22.7577ZM33.9185 24.3413C33.0319 23.8515 32.3511 23.1494 31.8743 22.2351C31.3976 21.3209 31.1609 20.2416 31.1609 18.9959C31.1609 17.6441 31.4352 16.4963 31.9821 15.5526C32.5307 14.609 33.2768 13.9004 34.2222 13.4269C35.1658 12.9535 36.2254 12.7167 37.3993 12.7167C38.0916 12.7167 38.7512 12.7934 39.3797 12.9453C40.0083 13.0971 40.5945 13.306 41.1365 13.5721L40.6124 15.1509C39.5218 14.6301 38.4802 14.3705 37.4891 14.3705C36.6532 14.3705 35.9201 14.5485 35.2915 14.9061C34.663 15.2636 34.1748 15.7877 33.8254 16.48C33.4777 17.1722 33.3013 18.0081 33.3013 18.9894C33.3013 19.8481 33.4352 20.609 33.7046 21.2735C33.9723 21.938 34.3969 22.4637 34.9748 22.8523C35.5527 23.2408 36.2826 23.4335 37.1642 23.4335C37.5626 23.4335 37.9626 23.4009 38.3609 23.3339C38.7593 23.267 39.1332 23.1707 39.4826 23.0433V20.6073H36.7005V19.0122H41.4777V24.0801C40.7904 24.4017 40.0688 24.6482 39.3145 24.8196C38.5585 24.9911 37.8075 25.0776 37.0581 25.0776C35.8499 25.0759 34.8034 24.8311 33.9185 24.3413ZM8.1144 21.6865H3.2963L2.1175 24.9094H0L4.7184 12.8717H6.72L11.5461 24.9094H9.3192L8.1144 21.6865ZM3.9021 20.0506H7.4988L6.2106 16.6024C6.0343 16.1257 5.8596 15.5999 5.6865 15.0236C5.5314 15.533 5.3632 16.0539 5.1805 16.5861L3.9021 20.0506ZM12.5013 18.1404C12.5013 17.4759 12.4785 16.7444 12.4344 15.9477H14.361C14.4328 16.3184 14.4818 16.6987 14.5112 17.0857C15.3079 16.2155 16.2223 15.7812 17.2524 15.7812C17.85 15.7812 18.4051 15.9313 18.9128 16.2335C19.4223 16.5355 19.8337 17.0122 20.1471 17.662C20.4606 18.3134 20.6174 19.1395 20.6174 20.1421C20.6174 21.1886 20.4378 22.0832 20.0802 22.8261C19.7243 23.569 19.223 24.1307 18.5814 24.5127C17.9398 24.8947 17.1969 25.0858 16.3545 25.0858C15.7455 25.0858 15.1446 24.9829 14.552 24.7788V28.4833L12.4997 28.6581V18.1404H12.5013ZM17.8958 22.7217C18.3137 22.1601 18.5226 21.3388 18.5226 20.258C18.5226 19.2555 18.3496 18.5289 18.0035 18.0767C17.6573 17.6261 17.1969 17.3991 16.6206 17.3991C16.2223 17.3991 15.8532 17.4939 15.5153 17.6816C15.1773 17.8693 14.8557 18.1225 14.552 18.4375V23.2392C14.7561 23.3388 14.9945 23.4172 15.2654 23.476C15.5365 23.5347 15.8059 23.5625 16.072 23.5625C16.8704 23.5641 17.4777 23.2833 17.8958 22.7217ZM21.863 15.9477C21.9071 16.7444 21.9299 17.4759 21.9299 18.1404H21.9282V28.6581L23.9806 28.4833V24.7788C24.5732 24.9829 25.174 25.0858 25.7831 25.0858C26.6254 25.0858 27.3684 24.8947 28.01 24.5127C28.6516 24.1307 29.1529 23.569 29.5088 22.8261C29.8664 22.0832 30.046 21.1886 30.046 20.1421C30.046 19.1395 29.8892 18.3134 29.5757 17.662C29.2622 17.0122 28.8508 16.5355 28.3414 16.2335C27.8337 15.9313 27.2786 15.7812 26.681 15.7812C25.6508 15.7812 24.7364 16.2155 23.9398 17.0857C23.9103 16.6987 23.8613 16.3184 23.7895 15.9477H21.863ZM27.9528 20.258C27.9528 21.3388 27.7439 22.1601 27.3259 22.7217C26.9079 23.2833 26.3006 23.5641 25.5022 23.5625C25.2361 23.5625 24.9667 23.5347 24.6956 23.476C24.4247 23.4172 24.1863 23.3388 23.9822 23.2392V18.4375C24.2859 18.1225 24.6075 17.8693 24.9455 17.6816C25.2834 17.4939 25.6525 17.3991 26.0508 17.3991C26.6271 17.3991 27.0875 17.6261 27.4337 18.0767C27.7798 18.5289 27.9528 19.2555 27.9528 20.258ZM48.731 23.7208C48.752 24.1649 48.799 24.56 48.87 24.9094V24.9078H50.797C50.752 24.1551 50.731 23.5919 50.731 23.2213V19.6572C50.731 18.689 50.579 17.9168 50.274 17.3437C49.969 16.7706 49.545 16.3657 49.003 16.1306C48.459 15.8955 47.8013 15.7779 47.0257 15.7779C46.3613 15.7779 45.7294 15.8465 45.1319 15.9853C44.5327 16.124 44.051 16.2759 43.6853 16.4424L44.0086 17.938C44.3858 17.76 44.8233 17.6082 45.3212 17.4809C45.8192 17.3534 46.2878 17.2898 46.7253 17.2898C47.3572 17.2898 47.8405 17.453 48.178 17.7763C48.518 18.0996 48.686 18.658 48.686 19.4498V19.6245C48.149 19.5477 47.607 19.5086 47.0584 19.5086C45.5955 19.5086 44.5523 19.7665 43.927 20.2858C43.3016 20.805 42.9881 21.4972 42.9881 22.3674C42.9881 22.9535 43.1123 23.4515 43.3621 23.858C43.6118 24.2662 43.9482 24.5699 44.3711 24.7723C44.7955 24.9748 45.2642 25.076 45.7801 25.076C46.4184 25.076 46.9898 24.9438 47.496 24.6809C48.004 24.418 48.415 24.098 48.731 23.7208ZM48.687 22.485C48.417 22.7903 48.067 23.045 47.6412 23.249C47.2151 23.4531 46.7972 23.556 46.3858 23.556C45.9808 23.556 45.6608 23.4499 45.4258 23.2359C45.1906 23.0237 45.0731 22.694 45.0731 22.2515C45.0731 21.7861 45.2363 21.4172 45.5596 21.1429C45.8829 20.8686 46.469 20.7314 47.3164 20.7314C47.6723 20.7314 48.128 20.7625 48.687 20.8229V22.485ZM57.636 12.1665V22.7577C57.636 24.3037 58.348 25.076 59.772 25.0744C60.022 25.0744 60.286 25.0515 60.566 25.0041C60.845 24.9584 61.082 24.8964 61.275 24.8181L61.033 23.347C60.8 23.4075 60.62 23.4384 60.493 23.4384C60.211 23.4384 60.005 23.3601 59.875 23.2017C59.744 23.0433 59.679 22.7739 59.679 22.3919V12L57.636 12.1665ZM69.782 20.6906H63.917C64.012 22.5682 64.906 23.507 66.601 23.507C67.022 23.507 67.452 23.4563 67.893 23.3535C68.334 23.2507 68.755 23.1135 69.16 22.9421L69.608 24.3462C68.606 24.8327 67.479 25.0776 66.227 25.0776C65.275 25.0776 64.472 24.898 63.818 24.5371C63.164 24.1764 62.673 23.6588 62.343 22.9829C62.013 22.3069 61.849 21.4939 61.849 20.5404C61.849 19.5494 62.023 18.6971 62.372 17.982C62.722 17.2669 63.207 16.7215 63.83 16.3461C64.453 15.969 65.173 15.7812 65.985 15.7812C66.833 15.7812 67.542 15.9787 68.108 16.3754C68.675 16.7722 69.096 17.2995 69.371 17.9575C69.645 18.6171 69.782 19.3453 69.782 20.1421V20.6906ZM67.781 19.3861C67.743 18.671 67.561 18.1355 67.24 17.7779C66.918 17.4204 66.489 17.2424 65.952 17.2424C65.431 17.2424 64.998 17.4221 64.651 17.7828C64.306 18.1436 64.081 18.6775 63.975 19.3861H67.781ZM71.369 15.9461C71.413 16.9534 71.436 17.7044 71.436 18.1975V24.9078H73.479V19.151C73.889 18.5861 74.274 18.1812 74.634 17.9347C74.993 17.6897 75.414 17.5657 75.896 17.5657C76.14 17.5657 76.361 17.5966 76.56 17.6571L76.818 15.8792C76.591 15.8122 76.319 15.7795 76.004 15.7795C75.612 15.7795 75.261 15.8628 74.954 16.0326C74.647 16.2007 74.377 16.4195 74.147 16.6889C73.917 16.9583 73.684 17.2881 73.446 17.6815C73.434 17.466 73.413 17.1853 73.383 16.8392C73.352 16.493 73.322 16.1958 73.287 15.9461H71.369ZM78.049 28.578C77.751 28.5258 77.505 28.4654 77.31 28.4001L77.684 26.9046C77.823 26.9438 77.997 26.9797 78.208 27.0172C78.419 27.0531 78.618 27.0711 78.806 27.0711C79.714 27.0711 80.394 26.4866 80.849 25.3176L80.982 24.9861L77.676 15.9477H79.876L81.538 20.9992C81.81 21.8628 81.984 22.5257 82.063 22.9845C82.218 22.3364 82.401 21.6881 82.612 21.04L84.298 15.9477H86.366L83.069 25.027C82.758 25.8858 82.424 26.578 82.063 27.1037C81.702 27.6295 81.278 28.0197 80.788 28.2743C80.296 28.5291 79.705 28.6564 79.015 28.6564C78.668 28.6564 78.349 28.6303 78.049 28.578Z" fill="white" fill-opacity="0.4"/>
</svg>
