<svg width="24" height="30" viewBox="0 0 24 30" fill="none" xmlns="http://www.w3.org/2000/svg">
<path fill-rule="evenodd" clip-rule="evenodd" d="M13.5168 3.14076C12.4594 4.34426 11.9237 5.91866 12.0277 7.51726C13.6636 7.53406 15.2168 6.79976 16.2419 5.52476C17.2985 4.25636 17.8191 2.626 17.693 0.97998C16.0788 1.14953 14.5877 1.92103 13.5168 3.14076ZM21.623 25.8112C22.4901 24.5816 23.1573 23.2227 23.5999 21.7848C21.2984 20.8113 19.8018 18.5561 19.7991 16.0571C19.8276 13.8483 20.9855 11.8081 22.8673 10.6512C21.6748 8.94796 19.749 7.90686 17.6709 7.84186C16.3335 7.70146 15.0212 8.22236 13.9486 8.64806C13.2677 8.91826 12.6835 9.15016 12.2508 9.15016C11.7587 9.15016 11.1577 8.90876 10.4843 8.63826C9.60372 8.28456 8.59932 7.88116 7.55262 7.90266C5.12222 7.98116 2.91142 9.32946 1.72892 11.4544C-0.789084 15.814 1.08911 22.2211 3.50121 25.7451C4.70801 27.4707 6.11841 29.3982 7.96391 29.3298C8.80111 29.2951 9.39511 29.0451 10.0087 28.7869C10.7187 28.4881 11.4549 28.1783 12.6243 28.1783C13.7269 28.1783 14.4315 28.4784 15.1077 28.7665C15.756 29.0426 16.3781 29.3077 17.2997 29.2864C19.2376 29.2549 20.4585 27.5531 21.623 25.8112Z" fill="white" fill-opacity="0.4"/>
</svg>
