<svg width="87" height="29" viewBox="0 0 87 29" fill="none" xmlns="http://www.w3.org/2000/svg">
<path fill-rule="evenodd" clip-rule="evenodd" d="M2.91559 3.08553H3.83709C4.15779 3.12533 4.48059 3.02983 4.72739 2.82203C4.97419 2.61423 5.12249 2.31323 5.13649 1.99173C5.13649 1.35893 4.65819 0.950128 3.84719 0.950128C3.51889 0.904428 3.18599 0.992828 2.92409 1.19523C2.66219 1.39763 2.49349 1.69683 2.45649 2.02483H1.44469C1.47989 1.42903 1.76219 0.874628 2.22389 0.494028C2.68569 0.113528 3.28549 -0.0589418 3.87989 0.0179282C5.23679 0.0179282 6.19219 0.774328 6.19219 1.86313C6.19879 2.61483 5.67699 3.26883 4.94019 3.43263V3.51343C5.82269 3.55243 6.50769 4.29393 6.47309 5.17273C6.40969 5.78583 6.10109 6.34763 5.61679 6.73143C5.13249 7.11533 4.51339 7.28873 3.89909 7.21283C3.28349 7.29633 2.66019 7.12733 2.17209 6.74453C1.68399 6.36163 1.37309 5.79783 1.31049 5.18233H2.33809C2.40009 5.83873 3.00579 6.26213 3.89909 6.26213C4.79249 6.26213 5.37559 5.78653 5.37559 5.11613C5.37559 4.43613 4.82629 4.01723 3.86639 4.01723H2.91559V3.08553ZM9.57499 4.03613C8.33879 4.11243 7.64059 4.64983 7.64059 5.58193C7.64239 6.02393 7.83179 6.44453 8.16209 6.73983C8.49239 7.03513 8.93269 7.17743 9.37429 7.13173C10.0041 7.16073 10.6009 6.85013 10.9364 6.31873H11.0176V7.04643H12.0068V3.50823C12.0068 2.41443 11.2714 1.76813 9.96749 1.76813C8.78769 1.76813 7.94629 2.33863 7.84139 3.22803H8.83509C8.95019 2.86193 9.34609 2.65253 9.91899 2.65253C10.6217 2.65253 10.9838 2.96133 10.9838 3.50823V3.95523L9.57499 4.03613ZM10.9838 4.70653V5.13943C10.9614 5.46953 10.8053 5.77633 10.5515 5.98973C10.2976 6.20313 9.96759 6.30483 9.63709 6.27153C9.07869 6.27153 8.67259 6.00033 8.67259 5.53423C8.67259 5.07773 8.99749 4.83513 9.71369 4.78743L10.9838 4.70653ZM14.7305 7.04653V2.72843H17.1285V1.86823H13.7041V7.04653H14.7305ZM21.2003 7.13193C22.5133 7.13193 23.3491 6.10043 23.3491 4.45513C23.3491 2.80933 22.5132 1.78233 21.1902 1.78233C20.5113 1.76563 19.8804 2.12943 19.557 2.72403H19.4803V1.86823H18.4922V8.76823H19.5186V6.26213H19.5998C19.918 6.83733 20.5423 7.17663 21.2003 7.13193ZM20.9037 2.70033C21.7733 2.70033 22.2933 3.36133 22.2933 4.45513C22.2933 5.55343 21.7733 6.21443 20.8992 6.21443C20.0397 6.21443 19.4994 5.53893 19.4994 4.45963C19.4994 3.37533 20.0398 2.70033 20.9037 2.70033ZM24.7167 8.02133V8.90133C24.8126 8.91533 25.0562 8.92483 25.1419 8.92483C26.2022 8.92483 26.694 8.52053 27.1384 7.26053L29.0773 1.86823H27.9888L26.6894 5.98133H26.6082L25.3043 1.86823H24.1865L26.069 7.06563L25.9923 7.31773C25.9099 7.76243 25.5045 8.07383 25.0516 8.04043C24.9397 8.04183 24.8278 8.03543 24.7167 8.02133ZM29.877 5.57703H30.8989C30.9992 6.03353 31.429 6.27163 32.0302 6.27163C32.7137 6.27163 33.1333 5.97173 33.1333 5.50573C33.1333 5.00653 32.7566 4.76843 32.0302 4.76843H31.2519V3.97443H32.0166C32.637 3.97443 32.9528 3.73693 32.9528 3.30393C32.9528 2.92383 32.6472 2.63353 32.0166 2.63353C31.4425 2.63353 31.0229 2.87613 30.9563 3.28493H29.9672C30.121 2.30773 31.0325 1.63313 32.0166 1.76823C33.2528 1.76823 33.9601 2.32473 33.9601 3.19953C33.972 3.70163 33.6296 4.14353 33.1389 4.25973V4.34053C33.7257 4.41593 34.163 4.91663 34.1563 5.50573C34.1563 6.49013 33.3149 7.14143 32.0302 7.14143C30.8943 7.14143 29.9717 6.62313 29.877 5.57703ZM35.6338 1.86823V7.04653L36.6512 7.04663L39.0525 3.46573H39.1292V7.04653H40.1466V1.86823H39.1292L36.7324 5.42993H36.6512V1.86823H35.6338ZM45.7514 2.72843H44.1136V7.04653H43.086V2.72843H41.4482V1.86823H45.7514V2.72843ZM51.281 5.64833C50.9923 6.62503 50.0429 7.25593 49.0263 7.14643C48.3327 7.16473 47.6662 6.87843 47.2036 6.36373C46.7409 5.84903 46.5289 5.15783 46.6238 4.47363C46.5314 3.78743 46.7427 3.09513 47.2028 2.57613C47.6628 2.05703 48.3265 1.76233 49.0217 1.76823C50.4689 1.76823 51.343 2.75263 51.343 4.37873V4.73533H47.6705V4.79253C47.6376 5.17693 47.7693 5.55723 48.0331 5.83973C48.2968 6.12223 48.6682 6.28073 49.0556 6.27603C49.5574 6.33583 50.0457 6.08783 50.2918 5.64833H51.281ZM47.6705 3.97943H50.2963C50.3225 3.62823 50.1986 3.28223 49.955 3.02683C49.7115 2.77133 49.3709 2.63013 49.0172 2.63803C48.6585 2.63313 48.313 2.77293 48.0593 3.02563C47.8057 3.27823 47.6655 3.62223 47.6705 3.97943ZM55.632 1.86823H57.977C58.994 1.86823 59.591 2.38143 59.591 3.18493C59.594 3.71043 59.228 4.16653 58.712 4.27883V4.35963C59.343 4.39933 59.832 4.92413 59.824 5.55343C59.824 6.45693 59.142 7.04653 58 7.04653H55.632V1.86823ZM56.649 2.65263V3.99353H57.667C58.287 3.99353 58.584 3.75603 58.584 3.31803C58.584 2.91433 58.325 2.65263 57.781 2.65263H56.649ZM56.649 6.26213V4.74493H57.738C58.43 4.74493 58.798 4.98743 58.798 5.50573C58.798 5.99543 58.473 6.26213 57.866 6.26213H56.649ZM43.3086 21.2357C43.4676 22.6518 44.8493 23.5817 46.7375 23.5817C48.5467 23.5817 49.8483 22.6518 49.8483 21.3749C49.8483 20.2664 49.0633 19.6027 47.2044 19.1479L45.3456 18.702C42.7119 18.0686 41.4892 16.8422 41.4892 14.8522C41.4892 12.3882 43.6458 10.6958 46.7081 10.6958C49.7389 10.6958 51.8165 12.3882 51.8865 14.8522H49.7197C49.59 13.4271 48.4068 12.5668 46.6777 12.5668C44.9486 12.5668 43.7654 13.4372 43.7654 14.704C43.7654 15.7136 44.5211 16.3077 46.3697 16.7625L47.95 17.1488C50.8927 17.8417 52.1154 19.0187 52.1154 21.1075C52.1154 23.7793 49.978 25.4526 46.5784 25.4526C43.3976 25.4526 41.2501 23.8186 41.1113 21.2356L43.3086 21.2357ZM3.87459 21.3549H9.34169L10.6535 25.2148H13.0086L7.83029 10.9341H5.42439L0.246094 25.2148H2.56169L3.87459 21.3549ZM8.77439 19.5737H4.44089L6.57829 13.3094H6.63809L8.77439 19.5737ZM19.8281 25.3235C22.4528 25.3235 24.192 23.2447 24.192 20.0092C24.192 16.7827 22.4426 14.6938 19.7886 14.6938C18.4229 14.65 17.1437 15.3572 16.459 16.5345H16.4195V14.8028H14.3418V28.6589H16.4882V23.5019H16.5379C17.1935 24.6866 18.4714 25.3941 19.8281 25.3235ZM19.2224 16.5154C20.8917 16.5154 21.9858 17.9013 21.9858 20.0092C21.9858 22.1363 20.8917 23.512 19.2224 23.512C17.5824 23.512 16.4793 22.1071 16.4793 20.0092C16.4793 17.9305 17.5824 16.5154 19.2224 16.5154ZM35.7018 20.0092C35.7018 23.2447 33.9625 25.3235 31.3378 25.3235C29.9812 25.3941 28.7032 24.6866 28.0477 23.5019H27.998V28.6589H25.8516V14.8027H27.9292V16.5345H27.9687C28.6534 15.3572 29.9327 14.65 31.2983 14.6938C33.9524 14.6938 35.7018 16.7827 35.7018 20.0092ZM33.4956 20.0092C33.4956 17.9013 32.4015 16.5154 30.7321 16.5154C29.0921 16.5154 27.989 17.9304 27.989 20.0092C27.989 22.1071 29.0921 23.512 30.7321 23.512C32.4015 23.512 33.4956 22.1363 33.4956 20.0092ZM56.747 14.8028V12.3389H54.591V14.8028H53.07V16.4953H54.591V22.4631C54.591 24.4823 55.416 25.2741 57.534 25.2741C57.933 25.2815 58.333 25.2484 58.726 25.1753V23.4929C58.491 23.5218 58.256 23.5383 58.02 23.5424C57.146 23.5424 56.747 23.1269 56.747 22.2352V16.4953H58.736V14.8028H56.747ZM64.847 14.6748C61.825 14.6748 59.888 16.7334 59.888 20.0093C59.888 23.2942 61.806 25.3438 64.847 25.3438C67.889 25.3438 69.808 23.2942 69.808 20.0093C69.808 16.7333 67.879 14.6748 64.847 14.6748ZM64.847 16.4357C66.586 16.4357 67.621 17.7621 67.621 20.0093C67.621 22.2655 66.586 23.5817 64.847 23.5817C63.108 23.5817 62.075 22.2655 62.075 20.0093C62.075 17.7722 63.108 16.4357 64.847 16.4357ZM73.624 14.8027H71.577V25.2144H73.724V19.0388C73.652 18.414 73.859 17.7893 74.289 17.3288C74.719 16.8683 75.329 16.6179 75.96 16.6433C76.287 16.6339 76.612 16.6775 76.925 16.7725V14.7735C76.683 14.7196 76.437 14.6929 76.189 14.6937C75.009 14.6489 73.96 15.434 73.674 16.5748H73.624V14.8027ZM82.319 25.3437C84.684 25.3437 86.533 24.0466 86.822 22.1565H84.783C84.392 23.1226 83.41 23.7182 82.368 23.621C81.587 23.6496 80.832 23.3428 80.294 22.7785C79.755 22.2143 79.486 21.447 79.555 20.6719V20.5427H86.941V19.8105C86.941 16.6536 85.122 14.6748 82.229 14.6748C79.287 14.6748 77.389 16.7929 77.389 20.0587C77.389 23.3144 79.277 25.3437 82.319 25.3437ZM84.794 19.0491H79.566C79.564 18.3461 79.844 17.6716 80.344 17.1753C80.844 16.6791 81.523 16.4023 82.229 16.4065C82.929 16.3916 83.604 16.6682 84.091 17.1698C84.578 17.6714 84.832 18.3526 84.794 19.0491Z" fill="white" fill-opacity="0.4"/>
</svg>
