<svg width="458" height="68" viewBox="0 0 458 68" fill="none" xmlns="http://www.w3.org/2000/svg">
<path d="M0.72 68V12.992L12.816 0.799995H55.536V12.992H12.816V68H0.72ZM12.816 40.448L25.008 28.352H49.488V40.448H12.816ZM67.095 68V0.799995H79.287V68H67.095ZM92.6888 68V0.799995H104.881V55.712H144.529L132.433 68H92.6888ZM181.799 68L163.751 0.799995H176.423L194.279 68H181.799ZM151.751 68V0.799995H163.751V68H151.751ZM194.279 68L212.231 0.799995H224.903L206.855 68H194.279ZM224.903 68V0.799995H236.903V68H224.903ZM250.376 68V12.992L262.568 0.799995H311.528V55.808L299.336 68H250.376ZM262.568 55.808H299.336V12.992H262.568V55.808ZM325.001 68V0.799995H337.193V31.232H373.673V12.992H337.193L349.385 0.799995H385.865V31.232L373.673 43.424L385.961 68H373.097L360.905 43.424H337.193V68H325.001ZM396.079 68L413.935 0.799995H426.607L416.911 37.568H436.399L426.607 0.799995H439.279L457.231 68H444.559L439.567 49.76H413.743L408.751 68H396.079Z" fill="url(#paint0_linear_438_81)"/>
<defs>
<linearGradient id="paint0_linear_438_81" x1="-6" y1="37.5" x2="494" y2="37.5" gradientUnits="userSpaceOnUse">
<stop stop-color="#631E1E"/>
<stop offset="1" stop-color="#0E0477"/>
</linearGradient>
</defs>
</svg>
