<svg width="94" height="31" viewBox="0 0 94 31" fill="none" xmlns="http://www.w3.org/2000/svg">
<path fill-rule="evenodd" clip-rule="evenodd" d="M19.503 0.0218849L19.299 0.020215L19.054 0.0236645C18.6446 0.0429945 18.2408 0.130925 17.8595 0.284345C17.402 0.468445 16.9864 0.743044 16.6375 1.0917C16.2892 1.4397 16.0149 1.8548 15.8314 2.3119C15.648 2.769 15.5592 3.25851 15.5702 3.75091C15.5592 4.23061 15.648 4.7201 15.8314 5.1771C16.0149 5.6343 16.2892 6.0494 16.6376 6.3975C16.9863 6.7463 17.4021 7.0212 17.8598 7.2055C18.3175 7.3898 18.8078 7.47971 19.3012 7.46981L19.577 7.4602L19.7656 7.4471L20.001 7.4142C20.3133 7.3605 20.619 7.26731 20.9111 7.13611C21.3797 6.91421 21.7892 6.5957 22.116 6.2006L22.2796 6.0029L21.2806 5.0057L21.084 5.2506L20.9472 5.4063C20.7561 5.6053 20.5309 5.76921 20.2817 5.89001C19.9701 6.04101 19.6289 6.1208 19.2827 6.1237C18.67 6.1396 18.0824 5.9068 17.6524 5.4796C17.2311 5.0204 16.9924 4.40741 16.9924 3.77131C16.9924 3.13511 17.2311 2.52221 17.6613 2.05361C17.8656 1.85131 18.1197 1.685 18.399 1.5741C18.6784 1.4632 18.9773 1.41 19.2778 1.4177C19.6052 1.4026 19.9108 1.4612 20.1902 1.5884C20.4695 1.7156 20.7144 1.9076 20.9044 2.1486L21.0967 2.3925L22.1064 1.4235L21.9383 1.2217L21.795 1.06061C21.4986 0.748195 21.1441 0.495525 20.7506 0.317195C20.357 0.138855 19.9333 0.0388349 19.503 0.0218849ZM27.486 0.173215L27.4869 0.162745H22.3765V1.5404L24.23 1.54021L24.2308 7.32641H25.6431L25.643 1.54021L27.4869 1.5404L27.486 0.396214L29.718 5.3272L29.4859 5.8341C29.4383 5.924 29.3784 5.99811 29.306 6.05921C29.2534 6.08661 29.1496 6.11131 29.0457 6.10351C28.9204 6.10201 28.8159 6.0735 28.7238 6.0202L28.4098 5.8384L28.0248 7.2044L28.2498 7.3028L28.398 7.3606C28.5983 7.4297 28.8088 7.4663 29.0214 7.4688C29.4391 7.4515 29.8265 7.3101 30.1452 7.0637C30.4639 6.8174 30.6984 6.4782 30.8164 6.0931L33.4865 0.162745H31.8597L30.453 3.5182L29.0111 0.173224L27.486 0.173215ZM41.44 2.9902L41.4401 0.162745H40.0278V7.32641H41.4401L41.44 4.3452H44.186L44.1869 7.32641H45.5992V0.162745H44.1869L44.186 2.9902H41.44ZM6.97803 5.9482L6.97873 0.162745H2.00253V3.7121L2.02033 3.9345C2.03703 4.3014 1.98903 4.6497 1.87923 4.9812L1.80622 5.1771L1.71933 5.3667C1.62563 5.5529 1.51173 5.7285 1.37963 5.8903L1.31803 5.9592H0.468826V8.7228H1.84953L1.84903 7.32621H6.33703L6.33753 8.71241H7.71833V5.9487L6.97803 5.9482ZM51.2519 0.285295C50.801 0.0979145 50.3176 0.00146484 49.8295 0.00146484C49.3412 0.00146484 48.8578 0.0979345 48.407 0.285295C47.9562 0.472625 47.5469 0.747185 47.2023 1.0933C46.5214 1.8113 46.1444 2.7566 46.1444 3.7393C46.1444 4.722 46.5214 5.6673 47.1976 6.3805C47.9024 7.0789 48.846 7.4672 49.8295 7.4672C50.8129 7.4672 51.7565 7.0789 52.4551 6.3867C53.1396 5.6691 53.5184 4.723 53.5184 3.7393C53.5184 2.7556 53.1396 1.8096 52.4607 1.0976C52.1122 0.747295 51.7027 0.472685 51.2519 0.285295ZM13.0276 0.285665C12.5768 0.0983846 12.0935 0.00199509 11.6055 0.00199509C11.1174 0.00199509 10.6341 0.098385 10.1833 0.285655C9.73263 0.472945 9.32333 0.747395 8.97903 1.0932C8.29803 1.8113 7.92113 2.7566 7.92113 3.7393C7.92113 4.7221 8.29803 5.6674 8.97423 6.3805C9.67893 7.0786 10.6223 7.4667 11.6055 7.4667C12.5886 7.4667 13.532 7.0786 14.2305 6.3868C14.9151 5.6691 15.2939 4.723 15.2939 3.7393C15.2939 2.7556 14.9151 1.8096 14.2362 1.0976C13.8876 0.747405 13.4783 0.472955 13.0276 0.285665ZM60.626 0.737425C60.21 0.359145 59.659 0.152015 59.09 0.162805L56.42 0.162745V7.33131L59.244 7.28231L59.439 7.2764C59.956 7.2386 60.454 7.026 60.842 6.6697C61.288 6.2827 61.541 5.71011 61.528 5.11271C61.536 4.71831 61.402 4.3209 61.15 3.9993L61.042 3.8713L60.924 3.7534L60.797 3.646L60.691 3.5702L60.789 3.4816L60.903 3.3571L61.005 3.222C61.202 2.9265 61.303 2.5831 61.297 2.2331C61.309 1.6672 61.063 1.1153 60.626 0.737425ZM39.0798 7.32641V0.162745H33.7285V7.32641H35.1408L35.1399 1.54021H37.667L37.6676 7.32641H39.0798ZM48.24 2.0423C48.6555 1.6308 49.2303 1.3941 49.8295 1.3941C50.4285 1.3941 51.0033 1.6308 51.4287 2.0527C51.8428 2.5078 52.0778 3.11491 52.0778 3.74461C52.0778 4.37431 51.8428 4.98131 51.4188 5.44681C50.5443 6.31431 49.1145 6.3143 48.2302 5.4365C47.8161 4.9813 47.5811 4.37421 47.5811 3.74461C47.5811 3.11491 47.8161 2.50791 48.24 2.0423ZM10.0156 2.0423C10.4312 1.6305 11.0061 1.39361 11.6055 1.39361C12.2048 1.39361 12.7797 1.6305 13.2053 2.0526C13.6193 2.5079 13.8543 3.11491 13.8543 3.74461C13.8543 4.37421 13.6194 4.98131 13.1954 5.44681C12.3209 6.31441 10.891 6.31441 10.0057 5.43641C9.59163 4.98131 9.35653 4.37421 9.35653 3.74461C9.35653 3.11491 9.59163 2.5078 10.0156 2.0423ZM3.38103 1.54021H5.49903V5.9922H2.94103L3.06683 5.70251C3.31153 5.07771 3.41993 4.4044 3.38073 3.7282L3.38103 1.54021ZM57.837 5.9482L57.862 4.3232L59.261 4.3239L59.364 4.33031C59.77 4.38071 60.082 4.72491 60.082 5.14211C60.079 5.34531 59.997 5.544 59.852 5.6946C59.773 5.7835 59.684 5.8474 59.585 5.8899C59.486 5.9324 59.379 5.9526 59.271 5.9489L57.837 5.9482ZM57.839 2.9902L57.871 1.5062L59.181 1.5067L59.279 1.511C59.343 1.5186 59.406 1.53551 59.466 1.56141C59.556 1.60021 59.636 1.6583 59.701 1.7314C59.775 1.8085 59.827 1.888 59.861 1.9751C59.895 2.0623 59.91 2.1555 59.908 2.2491C59.905 2.3427 59.883 2.4347 59.844 2.5197C59.804 2.6045 59.748 2.6807 59.679 2.7435C59.519 2.9153 59.317 2.99881 59.107 2.99051L57.839 2.9902ZM26.9791 18.0484C27.854 17.169 29.0421 16.6728 30.2825 16.6686V16.6697C30.9021 16.6576 31.5178 16.7701 32.0931 17.0004C32.6684 17.2308 33.1916 17.5743 33.6317 18.0106C34.071 18.4463 34.4179 18.966 34.6517 19.5388C34.8855 20.1115 35.0015 20.7255 34.9926 21.3441C34.9906 22.5844 34.4967 23.7732 33.6191 24.6496C32.7415 25.526 31.5521 26.0183 30.3118 26.0186C29.0716 26.0222 27.8806 25.5336 27.0002 24.6599C26.1199 23.7863 25.6222 22.599 25.6164 21.3588C25.6142 20.1184 26.1043 18.9278 26.9791 18.0484ZM28.6524 23.8032C29.1456 24.0899 29.7135 24.222 30.2825 24.1821C30.6445 24.1739 31.0013 24.0934 31.3318 23.9453C31.6623 23.7973 31.9598 23.5846 32.207 23.3199C32.4535 23.0557 32.6445 22.7447 32.7686 22.4053C32.8928 22.0659 32.9476 21.7051 32.9298 21.3441C32.9279 20.774 32.7544 20.2177 32.4319 19.7476C32.1094 19.2775 31.6528 18.9153 31.1216 18.7083C30.59 18.5005 30.0083 18.4571 29.4518 18.5835C28.8952 18.7099 28.3894 19.0005 27.9997 19.4176C27.6111 19.8341 27.3571 20.3581 27.2709 20.9212C27.1847 21.4844 27.2704 22.0604 27.5168 22.574C27.7637 23.0883 28.1593 23.5165 28.6524 23.8032ZM16.7045 18.0417C17.5816 17.1636 18.7715 16.6697 20.0127 16.6686L20.0118 16.6695C20.6278 16.6589 21.2398 16.7714 21.8118 17.0004C22.3871 17.2308 22.9103 17.5743 23.3504 18.0106C23.7896 18.4463 24.1365 18.966 24.3704 19.5388C24.6042 20.1115 24.7201 20.7255 24.7113 21.3441C24.7113 23.9244 22.615 26.0176 20.0273 26.0186C18.7864 26.0214 17.5951 25.5314 16.7152 24.6562C15.8354 23.7811 15.3389 22.5924 15.3351 21.3515C15.3348 20.1103 15.8273 18.9198 16.7045 18.0417ZM18.3794 23.8092C18.8741 24.0945 19.4432 24.2244 20.0127 24.1821H20.0116H20.0012C20.3632 24.1739 20.7199 24.0934 21.0504 23.9453C21.3809 23.7973 21.6785 23.5846 21.9256 23.3199C22.1723 23.0558 22.3635 22.7448 22.4878 22.4054C22.6122 22.066 22.6672 21.7051 22.6495 21.3441C22.6473 20.7735 22.4732 20.2169 22.1499 19.7467C21.8266 19.2765 21.3691 18.9147 20.8372 18.7083C20.3051 18.5012 19.723 18.4585 19.1664 18.5859C18.6098 18.7133 18.1043 19.0048 17.7153 19.4228C17.327 19.8403 17.0737 20.3652 16.9887 20.9289C16.9036 21.4927 16.9907 22.069 17.2386 22.5824C17.4872 23.0965 17.8847 23.5239 18.3794 23.8092ZM7.77863 20.0901V18.1101L14.475 18.0546C14.5518 18.4646 14.5887 18.881 14.585 19.2981C14.6364 21.0104 14.019 22.6753 12.8637 23.9401C12.2101 24.6222 11.4183 25.1567 10.5412 25.5077C9.66423 25.8588 8.72233 26.0183 7.77863 25.9757C6.46853 26.0271 5.16883 25.7247 4.01603 25.1001C2.86333 24.4755 1.90013 23.5519 1.22783 22.4263C0.557225 21.3025 0.203125 20.0181 0.203125 18.7094C0.203125 17.4006 0.557225 16.1163 1.22783 14.9924C1.90033 13.867 2.86353 12.9436 4.01623 12.3192C5.16903 11.6948 6.46863 11.3925 7.77863 11.4441C8.70673 11.436 9.62713 11.6138 10.4854 11.9672C11.3436 12.3206 12.1224 12.8423 12.7757 13.5017L11.3751 14.8981C10.4072 13.9667 9.11013 13.4564 7.76713 13.4786C7.07273 13.4776 6.38503 13.6134 5.74313 13.8783C5.10133 14.1431 4.51793 14.5317 4.02623 15.022C3.53453 15.5123 3.14433 16.0947 2.87773 16.7358C2.61113 17.3769 2.47343 18.0643 2.47243 18.7586C2.47343 19.4529 2.61113 20.1403 2.87773 20.7814C3.14433 21.4225 3.53453 22.0049 4.02623 22.4952C4.51793 22.9855 5.10133 23.3741 5.74313 23.6389C6.38503 23.9038 7.07273 24.0396 7.76713 24.0386C8.44683 24.0659 9.12483 23.9508 9.75753 23.7007C10.3901 23.4507 10.9636 23.0712 11.4411 22.5866C12.0803 21.903 12.4692 21.023 12.5442 20.0901H7.77863ZM56.217 17.5352C56.934 18.0675 57.473 18.8051 57.762 19.6501L57.993 20.1446L51.7157 22.7301C51.9086 23.1674 52.2286 23.5366 52.634 23.7897C53.0394 24.0428 53.5115 24.1683 53.9891 24.1497C54.453 24.151 54.909 24.032 55.313 23.8044C55.718 23.5767 56.056 23.2481 56.295 22.8506L57.894 23.9506C57.464 24.591 56.883 25.1151 56.201 25.4761C55.52 25.8372 54.76 26.0239 53.9891 26.0197C53.3727 26.0288 52.7607 25.9139 52.1897 25.6818C51.6186 25.4496 51.1001 25.1049 50.665 24.6682C50.2306 24.2324 49.8888 23.7133 49.66 23.1421C49.4312 22.5709 49.3201 21.9593 49.3334 21.3441C49.2959 20.7433 49.3823 20.1412 49.5872 19.5751C49.7921 19.009 50.1112 18.4911 50.5246 18.0536C50.9386 17.6151 51.438 17.266 51.992 17.0279C52.5461 16.7897 53.143 16.6674 53.746 16.6686C54.638 16.7006 55.5 17.0028 56.217 17.5352ZM51.4988 20.2078C51.3873 20.5303 51.3414 20.8717 51.3637 21.2121L55.555 19.4741C55.393 19.1566 55.142 18.8936 54.832 18.7176C54.522 18.5416 54.168 18.4604 53.812 18.4841C53.4707 18.4994 53.1359 18.5825 52.8271 18.7285C52.5182 18.8746 52.2416 19.0807 52.0132 19.3348C51.7853 19.5886 51.6104 19.8854 51.4988 20.2078ZM48.3298 25.7441H46.2671H46.266V11.9941H48.3298V25.7441ZM42.8141 17.7141H42.8916V16.9441H44.7889V25.2696C44.7889 28.7236 42.7921 30.1431 40.3763 30.1431C39.4871 30.1491 38.6162 29.8896 37.8753 29.3978C37.1344 28.906 36.5571 28.2044 36.2173 27.3826L38.015 26.6336C38.1994 27.1135 38.5224 27.5277 38.9428 27.8236C39.3633 28.1194 39.8623 28.2836 40.3763 28.2951C41.9205 28.2951 42.8801 27.3386 42.8801 25.5451V24.8746H42.8141C42.5074 25.2272 42.1272 25.5083 41.7003 25.6983C41.2734 25.8884 40.81 25.9827 40.3428 25.9746C39.1392 25.9178 38.0035 25.4002 37.1712 24.529C36.3388 23.6578 35.8734 22.4998 35.8715 21.2949C35.8732 20.0898 36.3384 18.9315 37.1708 18.0601C38.0032 17.1886 39.139 16.6709 40.3428 16.6141C40.8089 16.6133 41.2699 16.7109 41.6958 16.9005C42.1216 17.09 42.5027 17.3673 42.8141 17.7141ZM40.527 24.1818C39.8177 24.1196 39.1572 23.7942 38.6755 23.2697C38.193 22.7444 37.9248 22.0574 37.9238 21.3441C37.9238 19.867 39.0553 18.636 40.5303 18.5061C40.8829 18.524 41.2284 18.6122 41.5465 18.7655C41.8645 18.9188 42.1488 19.1341 42.3825 19.3987C42.8539 19.933 43.0896 20.6349 43.0352 21.3441C43.0652 21.6972 43.0231 22.0526 42.9114 22.3888C42.7997 22.7251 42.6209 23.0351 42.3856 23.3C42.1502 23.5653 41.8636 23.7803 41.5429 23.9319C41.2244 24.0824 40.879 24.1674 40.527 24.1818ZM62.494 11.9941H67.425H67.436C68.222 11.9377 69.007 12.0983 69.707 12.4582C70.408 12.8181 70.996 13.3635 71.407 14.0349C71.817 14.7054 72.034 15.4761 72.034 16.2621C72.034 17.0481 71.817 17.8188 71.407 18.4894C70.996 19.1607 70.408 19.7062 69.707 20.0661C69.007 20.426 68.222 20.5865 67.436 20.5301H64.557V25.7441H62.494V11.9941ZM64.546 18.5941H67.425L67.469 18.6266C67.779 18.6272 68.086 18.5666 68.373 18.4483C68.66 18.33 68.921 18.1564 69.141 17.9373C69.361 17.7182 69.535 17.4579 69.654 17.1714C69.773 16.8849 69.835 16.5777 69.835 16.2674C69.835 15.957 69.773 15.6498 69.654 15.3633C69.535 15.0768 69.361 14.8165 69.141 14.5975C68.921 14.3784 68.66 14.2047 68.373 14.0864C68.086 13.9682 67.779 13.9076 67.469 13.9081H64.546V18.5941ZM77.994 17.1172C78.646 16.7439 79.394 16.5691 80.144 16.6141L80.199 16.6477C82.549 16.6477 84.38 18.0441 84.38 20.4537V25.7441H82.394V24.6441H82.328C81.755 25.5346 80.739 26.0396 79.681 25.9641C79.256 25.9956 78.829 25.9417 78.425 25.8057C78.022 25.6696 77.649 25.4542 77.33 25.1721C77.011 24.8904 76.753 24.5475 76.569 24.1638C76.385 23.7801 76.281 23.3635 76.261 22.9386C76.261 20.9481 78.258 19.8481 80.232 19.8481C80.982 19.8448 81.721 20.0262 82.384 20.3761V20.2326C82.331 19.7046 82.067 19.2196 81.652 18.8864C81.447 18.7216 81.211 18.5992 80.958 18.5264C80.704 18.4535 80.439 18.4317 80.177 18.4621C79.8 18.4312 79.423 18.5103 79.09 18.69C78.757 18.8696 78.483 19.142 78.302 19.4741L76.471 18.7157C76.812 18.046 77.342 17.4904 77.994 17.1172ZM78.28 22.9826C78.28 23.8081 79.218 24.1486 79.89 24.1486L79.946 24.1821C80.546 24.1683 81.121 23.938 81.565 23.5337C82.009 23.1295 82.292 22.5785 82.362 21.9821C81.789 21.6635 81.142 21.504 80.486 21.5201C79.449 21.5201 78.28 21.8826 78.28 22.9826ZM89.256 22.9061L91.616 16.9441H91.617H93.912L88.263 29.9126H86.112L88.208 25.2821L84.535 16.9441H86.741L89.19 22.9061H89.256ZM75.136 25.7441H73.074H73.072V11.9941H75.136V25.7441Z" fill="white" fill-opacity="0.4"/>
</svg>
