<svg width="66" height="61" viewBox="0 0 66 61" fill="none" xmlns="http://www.w3.org/2000/svg">
<path d="M11 48.2917V43.2084H16.5V25.4167C16.5 21.9007 17.6458 18.7872 19.9375 16.0761C22.2292 13.3226 25.2083 11.5223 28.875 10.675V8.89587C28.875 7.83685 29.2646 6.94726 30.0438 6.22712C30.8688 5.46462 31.8542 5.08337 33 5.08337C34.1458 5.08337 35.1083 5.46462 35.8875 6.22712C36.7125 6.94726 37.125 7.83685 37.125 8.89587V10.675C40.7917 11.5223 43.7708 13.3226 46.0625 16.0761C48.3542 18.7872 49.5 21.9007 49.5 25.4167V43.2084H55V48.2917H11ZM33 55.9167C31.4875 55.9167 30.1813 55.4296 29.0813 54.4552C28.0271 53.4386 27.5 52.2313 27.5 50.8334H38.5C38.5 52.2313 37.95 53.4386 36.85 54.4552C35.7958 55.4296 34.5125 55.9167 33 55.9167ZM22 43.2084H44V25.4167C44 22.6209 42.9229 20.2275 40.7688 18.2365C38.6146 16.2455 36.025 15.25 33 15.25C29.975 15.25 27.3854 16.2455 25.2313 18.2365C23.0771 20.2275 22 22.6209 22 25.4167V43.2084Z" fill="#FEF7FF"/>
</svg>
