<svg width="75" height="29" viewBox="0 0 75 29" fill="none" xmlns="http://www.w3.org/2000/svg">
<path d="M11.4088 28.0172H8.91814L4.96605 22.5779H2.88705V28.0172H0.766846V13.7085H5.87174C6.85974 13.7085 7.74485 13.8979 8.52705 14.2768C9.30925 14.6556 9.91305 15.1833 10.3384 15.8599C10.7776 16.5229 10.9971 17.2874 10.9971 18.1533C10.9971 19.2358 10.6609 20.1626 9.98855 20.9339C9.31615 21.6916 8.41735 22.1922 7.29205 22.4358L11.4088 28.0172ZM2.88705 15.6366V20.67H5.87174C6.75004 20.67 7.45674 20.44 7.99194 19.98C8.54084 19.5064 8.81525 18.8975 8.81525 18.1533C8.81525 17.4091 8.54084 16.807 7.99194 16.347C7.45674 15.8734 6.75004 15.6366 5.87174 15.6366H2.88705Z" fill="white" fill-opacity="0.4"/>
<path d="M17.0345 28.2205C16.2798 28.2205 15.6005 28.0378 14.9967 27.6725C14.3929 27.2936 13.9195 26.7794 13.5764 26.13C13.2333 25.467 13.0618 24.7228 13.0618 23.8974V17.5244H15.0791V23.735C15.0791 24.5333 15.3055 25.1828 15.7583 25.6834C16.2112 26.1841 16.7944 26.4344 17.508 26.4344C18.249 26.4344 18.8665 26.1773 19.3605 25.6632C19.8546 25.149 20.1016 24.5063 20.1016 23.735V17.5244H22.1188V28.0175H20.6779L20.2045 26.4344C19.8614 27.0027 19.4086 27.4424 18.8459 27.7536C18.297 28.0648 17.6932 28.2205 17.0345 28.2205Z" fill="white" fill-opacity="0.4"/>
<path d="M29.639 28.2206C28.3079 28.2206 27.1483 27.8823 26.1603 27.2058C25.186 26.5157 24.5204 25.5821 24.1636 24.4049L26.2015 24.0802C26.5994 24.8379 27.0729 25.3994 27.6218 25.7647C28.1707 26.1165 28.8431 26.2924 29.639 26.2924C30.4487 26.2924 31.1073 26.1165 31.6151 25.7647C32.1228 25.3994 32.3767 24.9055 32.3767 24.2831C32.3767 23.8231 32.2326 23.4375 31.9444 23.1262C31.67 22.815 31.32 22.5647 30.8946 22.3753C30.4692 22.1859 29.9135 21.9761 29.2273 21.7461C28.3079 21.4484 27.5532 21.1508 26.9631 20.8531C26.373 20.5554 25.8721 20.136 25.4604 19.5947C25.0625 19.04 24.8635 18.3364 24.8635 17.4839C24.8635 16.6856 25.0625 15.9888 25.4604 15.3935C25.8721 14.7846 26.4348 14.3178 27.1483 13.993C27.8619 13.6683 28.6578 13.5059 29.5361 13.5059C30.7574 13.5059 31.8072 13.8239 32.6855 14.4598C33.5637 15.0822 34.1881 15.9414 34.5586 17.0374L32.562 17.3622C32.2875 16.7398 31.8964 16.2662 31.3887 15.9414C30.8809 15.6032 30.284 15.434 29.5978 15.434C28.8568 15.434 28.2462 15.6099 27.7659 15.9617C27.2856 16.3 27.0454 16.7668 27.0454 17.3622C27.0454 17.8087 27.1826 18.1875 27.4571 18.4987C27.7453 18.81 28.0952 19.0603 28.5069 19.2497C28.9323 19.4391 29.4949 19.6556 30.1948 19.8992C31.0868 20.1969 31.8278 20.5013 32.4179 20.8125C33.0217 21.1102 33.5294 21.5364 33.9411 22.0911C34.3528 22.6459 34.5586 23.3427 34.5586 24.1816C34.5586 24.9935 34.339 25.7038 33.8999 26.3127C33.4745 26.9216 32.8844 27.3952 32.1297 27.7334C31.3887 28.0582 30.5584 28.2206 29.639 28.2206Z" fill="white" fill-opacity="0.4"/>
<path d="M43.08 26.272L42.894 28.0175H41.021C39.91 28.0175 39.066 27.7469 38.489 27.2057C37.913 26.6644 37.625 25.8864 37.625 24.8716V19.2902H35.7927V17.5244H37.625L38.181 14.48H39.642V17.5244H42.894V19.2902H39.642V24.8716C39.642 25.8052 40.102 26.272 41.021 26.272H43.08Z" fill="white" fill-opacity="0.4"/>
<path d="M49.807 28.2203C48.723 28.2203 47.755 27.9902 46.904 27.5302C46.053 27.0701 45.388 26.4274 44.908 25.6021C44.427 24.7767 44.187 23.8363 44.187 22.7809C44.187 21.7255 44.427 20.7851 44.908 19.9598C45.388 19.1344 46.053 18.4917 46.904 18.0316C47.755 17.5581 48.723 17.3213 49.807 17.3213C50.891 17.3213 51.858 17.5581 52.709 18.0316C53.56 18.4917 54.225 19.1344 54.706 19.9598C55.186 20.7851 55.426 21.7255 55.426 22.7809C55.426 23.8363 55.186 24.7767 54.706 25.6021C54.225 26.4274 53.56 27.0701 52.709 27.5302C51.858 27.9902 50.891 28.2203 49.807 28.2203ZM49.807 26.3936C50.85 26.3936 51.694 26.0621 52.338 25.3991C52.997 24.7361 53.327 23.8634 53.327 22.7809C53.327 21.6985 52.997 20.8257 52.338 20.1627C51.694 19.4862 50.85 19.1479 49.807 19.1479C48.764 19.1479 47.92 19.4862 47.275 20.1627C46.63 20.8257 46.307 21.6985 46.307 22.7809C46.307 23.8498 46.63 24.7226 47.275 25.3991C47.92 26.0621 48.764 26.3936 49.807 26.3936Z" fill="white" fill-opacity="0.4"/>
<path d="M57.5891 28.0175V17.5244H59.0511L59.4831 19.0263C59.7991 18.4986 60.1901 18.1198 60.6561 17.8898C61.1231 17.6462 61.6791 17.5244 62.3241 17.5244H62.8181L62.9821 19.4323H61.8301C61.0891 19.4323 60.5331 19.642 60.1621 20.0614C59.7921 20.4809 59.6071 21.0492 59.6071 21.7663V28.0175H57.5891Z" fill="white" fill-opacity="0.4"/>
<path d="M74.515 22.6997C74.515 22.9703 74.508 23.1801 74.494 23.3289H65.705C65.815 24.2625 66.185 25.0067 66.816 25.5615C67.448 26.1162 68.251 26.3936 69.225 26.3936C69.897 26.3936 70.494 26.2651 71.016 26.008C71.551 25.7374 71.956 25.3856 72.23 24.9526L74.124 25.257C73.712 26.2042 73.047 26.9348 72.127 27.449C71.221 27.9632 70.213 28.2203 69.101 28.2203C68.045 28.2203 67.098 27.9902 66.261 27.5302C65.424 27.0566 64.772 26.4071 64.305 25.5818C63.839 24.7564 63.605 23.8228 63.605 22.7809C63.605 21.7255 63.839 20.7851 64.305 19.9598C64.772 19.1344 65.417 18.4917 66.24 18.0316C67.063 17.5581 68.004 17.3213 69.06 17.3213C70.103 17.3213 71.036 17.5581 71.86 18.0316C72.697 18.4917 73.349 19.1344 73.815 19.9598C74.282 20.7716 74.515 21.6849 74.515 22.6997ZM69.06 19.087C68.251 19.087 67.551 19.3238 66.961 19.7974C66.384 20.271 66 20.9069 65.808 21.7052H72.312C72.134 20.9204 71.75 20.2913 71.16 19.8177C70.583 19.3306 69.884 19.087 69.06 19.087Z" fill="white" fill-opacity="0.4"/>
<path d="M4.09867 8.8962C3.37747 8.8962 2.72897 8.7286 2.15347 8.3935C1.58517 8.0511 1.13707 7.5811 0.809166 6.9837C0.488666 6.379 0.328369 5.6978 0.328369 4.9401C0.328369 4.1823 0.488666 3.5048 0.809166 2.9073C1.12977 2.3026 1.57057 1.83268 2.13157 1.49753C2.69987 1.1551 3.34097 0.983887 4.05497 0.983887C4.81277 0.983887 5.49397 1.17332 6.09867 1.55218C6.71067 1.92375 7.14777 2.4301 7.41007 3.0713L6.50297 3.2133C6.26987 2.7835 5.93837 2.4483 5.50847 2.2079C5.08597 1.96018 4.61597 1.83632 4.09867 1.83632C3.55227 1.83632 3.06777 1.96747 2.64517 2.2298C2.22267 2.492 1.89117 2.86 1.65067 3.3335C1.41757 3.7998 1.30097 4.3353 1.30097 4.9401C1.30097 5.5521 1.41757 6.0948 1.65067 6.5684C1.89117 7.0347 2.22267 7.399 2.64517 7.6613C3.07507 7.9163 3.56687 8.0438 4.12057 8.0438C4.66697 8.0438 5.15147 7.9199 5.57407 7.6722C5.99667 7.4245 6.32447 7.0748 6.55767 6.6231L7.46477 6.7651C7.19517 7.4209 6.75437 7.9418 6.14237 8.3279C5.53767 8.7068 4.85647 8.8962 4.09867 8.8962Z" fill="white" fill-opacity="0.4"/>
<path d="M12.935 8.79781H11.7765L9.54708 6.37161H9.20828V8.79781H8.33398V3.19141H9.20828V5.54101H9.55798L11.6563 3.19141H12.7164L10.2684 5.91261L12.935 8.79781Z" fill="white" fill-opacity="0.4"/>
<path d="M15.4439 3.08203C16.1142 3.08203 16.6424 3.30783 17.0285 3.75963C17.422 4.20403 17.6187 4.83793 17.6187 5.66113V8.79773H17.0285L16.7881 7.91243C16.3437 8.57543 15.7244 8.90703 14.9302 8.90703C14.3619 8.90703 13.8957 8.74303 13.5314 8.41523C13.1744 8.08733 12.9958 7.66473 12.9958 7.14743C12.9958 6.61563 13.2035 6.19303 13.6188 5.87973C14.0414 5.55913 14.6461 5.39893 15.433 5.39893H16.7444C16.7153 4.88893 16.5841 4.50273 16.351 4.24043C16.1178 3.97083 15.8045 3.83613 15.4111 3.83613C15.127 3.83613 14.8683 3.90163 14.6352 4.03283C14.4093 4.16393 14.2344 4.34613 14.1105 4.57923L13.2909 4.44813C13.4512 4.02553 13.7243 3.69403 14.1105 3.45363C14.5039 3.20583 14.9485 3.08203 15.4439 3.08203ZM15.0942 8.15293C15.5823 8.15293 15.9794 7.99263 16.2854 7.67203C16.5914 7.35143 16.7444 6.89243 16.7444 6.29503V6.15293H15.4439C14.402 6.15293 13.8811 6.47713 13.8811 7.12563C13.8811 7.43893 13.9904 7.69023 14.2089 7.87973C14.4275 8.06183 14.7226 8.15293 15.0942 8.15293Z" fill="white" fill-opacity="0.4"/>
<path d="M21.8842 6.66671C21.6874 6.74681 21.4616 6.80881 21.2066 6.85251C20.9589 6.89621 20.7184 6.91801 20.4853 6.91801C19.8369 6.91801 19.3341 6.73951 18.9771 6.38251C18.6201 6.01821 18.4417 5.50461 18.4417 4.84161V3.19141H19.3159V4.84161C19.3159 5.69401 19.7349 6.12021 20.5727 6.12021C20.7913 6.12021 21.0171 6.09841 21.2503 6.05471C21.4834 6.01101 21.6947 5.94541 21.8842 5.85801V3.19141H22.7584V8.79781H21.8842V6.66671Z" fill="white" fill-opacity="0.4"/>
<path d="M26.1914 3.08203C26.8617 3.08203 27.3899 3.30783 27.7761 3.75963C28.1695 4.20403 28.3662 4.83793 28.3662 5.66113V8.79773H27.7761L27.5356 7.91243C27.0912 8.57543 26.4719 8.90703 25.6778 8.90703C25.1095 8.90703 24.6432 8.74303 24.2789 8.41523C23.9219 8.08733 23.7434 7.66473 23.7434 7.14743C23.7434 6.61563 23.951 6.19303 24.3663 5.87973C24.7889 5.55913 25.3936 5.39893 26.1805 5.39893H27.4919C27.4628 4.88893 27.3316 4.50273 27.0985 4.24043C26.8653 3.97083 26.5521 3.83613 26.1586 3.83613C25.8745 3.83613 25.6158 3.90163 25.3827 4.03283C25.1568 4.16393 24.982 4.34613 24.8581 4.57923L24.0385 4.44813C24.1988 4.02553 24.472 3.69403 24.8581 3.45363C25.2516 3.20583 25.696 3.08203 26.1914 3.08203ZM25.8417 8.15293C26.3298 8.15293 26.7269 7.99263 27.0329 7.67203C27.3389 7.35143 27.4919 6.89243 27.4919 6.29503V6.15293H26.1914C25.1496 6.15293 24.6286 6.47713 24.6286 7.12563C24.6286 7.43893 24.7379 7.69023 24.9565 7.87973C25.1751 8.06183 25.4701 8.15293 25.8417 8.15293Z" fill="white" fill-opacity="0.4"/>
<path d="M30.9817 8.7979H29.6265V3.1915H30.4789V7.8689H30.6319L33.1018 3.1915H34.457V8.7979H33.6045V4.1204H33.4625L30.9817 8.7979ZM32.0417 2.3937C31.5973 2.3937 31.2257 2.2771 30.927 2.044C30.6356 1.81082 30.4571 1.45746 30.3915 0.983887H31.1347C31.1784 1.22432 31.2767 1.40646 31.4297 1.53032C31.5827 1.65418 31.7867 1.71611 32.0417 1.71611C32.2967 1.71611 32.5007 1.65418 32.6537 1.53032C32.814 1.40646 32.9124 1.22432 32.9488 0.983887H33.692C33.6337 1.45746 33.4552 1.81082 33.1565 2.044C32.8577 2.2771 32.4862 2.3937 32.0417 2.3937Z" fill="white" fill-opacity="0.4"/>
<path d="M38.0421 8.79781H37.1681V3.98921H35.2224V3.19141H39.9871V3.98921H38.0421V8.79781Z" fill="white" fill-opacity="0.4"/>
<path d="M45.8781 5.97813C45.8781 6.07283 45.8751 6.16393 45.8671 6.25133H41.1241C41.1751 6.81233 41.3831 7.26043 41.7471 7.59553C42.1121 7.93073 42.5741 8.09823 43.1351 8.09823C43.5291 8.09823 43.8781 8.01813 44.1841 7.85783C44.4901 7.69753 44.7161 7.48623 44.8621 7.22393L45.6821 7.35513C45.4561 7.85783 45.1101 8.24393 44.6431 8.51353C44.1771 8.77583 43.6601 8.90703 43.0921 8.90703C42.5311 8.90703 42.0311 8.78313 41.5941 8.53543C41.1571 8.28773 40.8151 7.94163 40.5671 7.49723C40.3271 7.05273 40.2061 6.55003 40.2061 5.98903C40.2061 5.42803 40.3271 4.92893 40.5671 4.49183C40.8071 4.04733 41.1431 3.70133 41.5721 3.45363C42.0021 3.20583 42.4901 3.08203 43.0371 3.08203C43.5831 3.08203 44.0711 3.20583 44.5011 3.45363C44.9311 3.70133 45.2661 4.04733 45.5071 4.49183C45.7541 4.92893 45.8781 5.42443 45.8781 5.97813ZM43.0371 3.86883C42.5561 3.86883 42.1441 4.01823 41.8021 4.31693C41.4671 4.60843 41.2521 5.00183 41.1571 5.49723H44.9281C44.8401 5.00913 44.6251 4.61563 44.2831 4.31693C43.9481 4.01823 43.5321 3.86883 43.0371 3.86883Z" fill="white" fill-opacity="0.4"/>
<path d="M50.513 8.79781H49.158V3.19141H50.01V7.86881H50.163L52.633 3.19141H53.988V8.79781H53.136V4.12031H52.994L50.513 8.79781Z" fill="white" fill-opacity="0.4"/>
<path d="M58.2621 5.92343C58.5391 6.01813 58.7681 6.18213 58.9501 6.41523C59.1331 6.64113 59.2241 6.91793 59.2241 7.24583C59.2241 7.55183 59.1361 7.83233 58.9611 8.08733C58.7871 8.34233 58.5391 8.54273 58.2181 8.68843C57.9051 8.83413 57.5411 8.90703 57.1251 8.90703C56.5571 8.90703 56.0621 8.77223 55.6391 8.50263C55.2161 8.23303 54.9401 7.86513 54.8081 7.39883L55.6171 7.26773C55.7411 7.55913 55.9301 7.77773 56.1851 7.92343C56.4481 8.06183 56.7571 8.13103 57.1141 8.13103C57.5081 8.13103 57.8101 8.05093 58.0211 7.89063C58.2331 7.72303 58.3381 7.49353 58.3381 7.20213C58.3381 6.93983 58.2401 6.73223 58.0431 6.57923C57.8471 6.41893 57.5371 6.33873 57.1141 6.33873H56.3381V5.55193H57.1141C57.4791 5.55193 57.7591 5.47903 57.9561 5.33333C58.1531 5.18763 58.2511 4.99093 58.2511 4.74313C58.2511 4.47363 58.1421 4.25863 57.9231 4.09843C57.7051 3.93813 57.4351 3.85793 57.1141 3.85793C56.8161 3.85793 56.5461 3.93083 56.3061 4.07653C56.0731 4.21493 55.8981 4.41163 55.7811 4.66663L54.9611 4.52463C55.1291 4.06563 55.4101 3.71223 55.8031 3.46453C56.1961 3.20953 56.6441 3.08203 57.1471 3.08203C57.5191 3.08203 57.8541 3.15123 58.1531 3.28963C58.4591 3.42813 58.6991 3.61753 58.8741 3.85793C59.0491 4.09843 59.1361 4.37163 59.1361 4.67763C59.1361 4.97633 59.0561 5.23863 58.8961 5.46443C58.7361 5.68303 58.5241 5.83603 58.2621 5.92343Z" fill="white" fill-opacity="0.4"/>
</svg>
