<svg width="31" height="31" viewBox="0 0 31 31" fill="none" xmlns="http://www.w3.org/2000/svg">
<path fill-rule="evenodd" clip-rule="evenodd" d="M14.7293 30.4048C7.82748 30.4048 4.37658 30.4048 2.23248 28.2906C0.0883791 26.1765 0.0883789 22.7739 0.0883789 15.9686V14.7656C0.0883789 7.96031 0.0883791 4.55771 2.23248 2.44361C4.37658 0.32959 7.82748 0.32959 14.7293 0.32959H15.9494C22.8512 0.32959 26.3021 0.32959 28.4463 2.44361C30.5904 4.55771 30.5904 7.96031 30.5904 14.7656V15.9686C30.5904 22.7739 30.5904 26.1765 28.4463 28.2906C26.3021 30.4048 22.8512 30.4048 15.9494 30.4048H14.7293ZM21.5756 19.812L23.6365 20.3196C24.57 20.5495 25.4749 19.857 25.4749 18.9127V9.11851C25.4749 8.28721 24.8987 7.56231 24.0769 7.35991L18.1657 5.90391C17.2323 5.67401 16.3273 6.36651 16.3273 7.31081V9.07641L12.6029 8.15901C11.6694 7.92911 10.7645 8.62171 10.7645 9.56591V11.3315L7.03988 10.4141C6.10648 10.1842 5.20148 10.8767 5.20148 11.821V21.6152C5.20148 22.4465 5.77778 23.1714 6.59958 23.3738L12.5107 24.8297C13.4442 25.0597 14.3491 24.3671 14.3491 23.4229V21.7944L14.3479 21.7942L14.3495 13.643C14.3495 12.8167 13.8202 12.3377 13.6278 12.1909C13.5911 12.1629 13.581 12.1107 13.6073 12.073C13.6332 12.0359 13.6799 12.0184 13.7236 12.0314C14.5024 12.2632 15.2477 13.0506 15.3221 14.0405L15.5792 21.5203C15.5877 21.7661 15.7489 21.9792 15.9809 22.0592L18.0737 22.5747C19.0071 22.8046 19.9121 22.1121 19.9121 21.1678L19.9136 11.3889C19.9136 10.5626 19.3843 10.0836 19.1919 9.93681C19.1552 9.90881 19.1451 9.85661 19.1714 9.81891C19.1973 9.78181 19.244 9.76431 19.2877 9.77731C20.0665 10.0091 20.8118 10.7965 20.8862 11.7864L21.1434 19.2657C21.1522 19.5216 21.3275 19.7418 21.5756 19.812Z" fill="white" fill-opacity="0.4"/>
</svg>
