<svg width="52" height="52" viewBox="0 0 52 52" fill="none" xmlns="http://www.w3.org/2000/svg">
<path fill-rule="evenodd" clip-rule="evenodd" d="M27.2783 35.9535L21.6602 41.2034C21.6602 41.2034 21.2203 41.5435 20.7393 41.3312L21.8162 31.5812L21.853 31.6094L21.8747 31.41C21.8747 31.41 37.6307 16.8999 38.2763 16.2824C38.922 15.6649 38.7053 15.5327 38.7053 15.5327C38.7487 14.783 37.544 15.5327 37.544 15.5327L16.666 29.1177L7.97116 26.119C7.97116 26.119 6.63649 25.6337 6.50649 24.5742C6.37649 23.5169 8.01449 22.9427 8.01449 22.9427L42.5793 9.05005C42.5793 9.05005 45.422 7.77171 45.422 9.88855L39.2665 41.6865C39.2665 41.6865 38.4042 43.8922 36.0382 42.8349L27.2783 35.9535Z" fill="white"/>
</svg>
