<svg width="93" height="90" viewBox="0 0 93 90" fill="none" xmlns="http://www.w3.org/2000/svg">
<path fill-rule="evenodd" clip-rule="evenodd" d="M87.0441 25.5862C87.4122 23.91 86.5946 22.9688 84.661 22.9688H74.9154C72.6834 22.9688 71.8657 23.8425 71.1954 25.1138C71.1954 25.1138 65.9254 35.2388 59.52 41.6138C57.4585 43.6763 56.4123 44.295 55.2769 44.295C54.3624 44.295 53.94 43.6087 53.94 41.745V25.455C53.94 23.175 53.6416 22.5037 51.5569 22.5037H35.9368C34.7471 22.5037 33.9993 23.1263 33.9993 23.9775C33.9993 26.1263 37.6456 26.61 37.6456 32.43V44.43C37.6456 46.8487 37.4984 47.7863 36.2351 47.7863C32.8871 47.7863 24.9279 37.3912 20.4639 25.5862C19.5726 23.175 18.6039 22.5 16.0735 22.5H6.33175C4.91737 22.5 3.875 23.37 3.875 24.645C3.875 26.9925 6.92462 37.8562 18.9022 52.41C26.9312 62.2012 37.5022 67.5 47.0192 67.5C52.824 67.5 54.2345 66.63 54.2345 64.4138V56.9025C54.2345 55.0275 55.056 54.2212 56.2456 54.2212C57.5825 54.2212 59.9463 54.6075 65.4681 59.52C72.0169 65.1525 72.4625 67.5 76.0314 67.5H86.9666C88.0826 67.5 89.125 67.0312 89.125 65.355C89.125 63.1425 85.9242 59.1825 81.0146 54.4913C79.0074 52.0763 75.733 49.4587 74.6945 48.2512C73.2065 46.845 73.6521 46.0387 74.6945 44.565C74.6945 44.565 85.9242 30.2775 87.0441 25.5862Z" fill="white"/>
</svg>
