<svg width="24" height="24" viewBox="0 0 24 24" fill="none" xmlns="http://www.w3.org/2000/svg">
<path fill-rule="evenodd" clip-rule="evenodd" d="M21.654 6.41277C21.41 5.26777 20.54 4.42377 19.492 4.29777C17.012 3.99977 14.502 3.99777 12.003 3.99977C9.504 3.99877 6.993 3.99977 4.513 4.29777C3.467 4.42377 2.597 5.26777 2.353 6.41277C2.002 8.04277 2 9.82177 2 11.4998C2 13.1778 2 14.9568 2.348 16.5868C2.593 17.7308 3.463 18.5758 4.51 18.7018C6.99 18.9998 9.5 19.0018 12 18.9998C14.499 19.0008 17.009 18.9998 19.488 18.7018C20.535 18.5758 21.405 17.7318 21.65 16.5868C21.999 14.9568 22 13.1778 22 11.4998C22 9.82177 22.003 8.04277 21.654 6.41277ZM10 14.9998V7.99977L16 11.5098L10 14.9998Z" fill="white"/>
</svg>
